<svg xmlns="http://www.w3.org/2000/svg" xmlns:xlink="http://www.w3.org/1999/xlink" width="500" zoomAndPan="magnify" viewBox="0 0 375 374.999991" height="500" preserveAspectRatio="xMidYMid meet" version="1.0"><defs><g/><clipPath id="036b4dc799"><path d="M 109.105469 114.394531 L 166.015625 114.394531 L 166.015625 253.101562 L 109.105469 253.101562 Z M 109.105469 114.394531 " clip-rule="nonzero"/></clipPath><clipPath id="0970cbefd5"><path d="M 0.105469 0.394531 L 57.015625 0.394531 L 57.015625 139.101562 L 0.105469 139.101562 Z M 0.105469 0.394531 " clip-rule="nonzero"/></clipPath><clipPath id="2c0f8ce0f4"><rect x="0" width="58" y="0" height="140"/></clipPath><clipPath id="a3c0d59f2a"><rect x="0" width="151" y="0" height="188"/></clipPath><clipPath id="e82ca130ce"><rect x="0" width="109" y="0" height="189"/></clipPath></defs><rect x="-37.5" width="450" fill="#ffffff" y="-37.499999" height="449.999989" fill-opacity="1"/><rect x="-37.5" width="450" fill="#000000" y="-37.499999" height="449.999989" fill-opacity="1"/><g clip-path="url(#036b4dc799)"><g transform="matrix(1, 0, 0, 1, 109, 114)"><g clip-path="url(#2c0f8ce0f4)"><g clip-path="url(#0970cbefd5)"><path fill="#ffffff" d="M 0.105469 0.394531 L 57.015625 0.394531 L 57.015625 139.109375 L 0.105469 139.109375 Z M 0.105469 0.394531 " fill-opacity="1" fill-rule="nonzero"/></g></g></g></g><g transform="matrix(1, 0, 0, 1, 139, 113)"><g clip-path="url(#a3c0d59f2a)"><g fill="#ffffff" fill-opacity="1"><g transform="translate(0.940987, 140.738168)"><g><path d="M 13.234375 -138.890625 L 69.53125 -138.890625 C 79.601562 -138.890625 89.019531 -137.144531 97.78125 -133.65625 C 106.539062 -130.175781 114.242188 -125.296875 120.890625 -119.015625 C 127.546875 -112.742188 132.765625 -105.414062 136.546875 -97.03125 C 140.335938 -88.644531 142.234375 -79.476562 142.234375 -69.53125 C 142.234375 -59.59375 140.335938 -50.394531 136.546875 -41.9375 C 132.765625 -33.488281 127.546875 -26.125 120.890625 -19.84375 C 114.242188 -13.570312 106.539062 -8.695312 97.78125 -5.21875 C 89.019531 -1.738281 79.664062 0 69.71875 0 L 13.234375 0 Z M 42.125 -26.09375 L 69.71875 -26.09375 C 77.800781 -26.09375 85.070312 -27.988281 91.53125 -31.78125 C 98 -35.570312 103.125 -40.726562 106.90625 -47.25 C 110.695312 -53.78125 112.59375 -61.207031 112.59375 -69.53125 C 112.59375 -77.988281 110.695312 -85.445312 106.90625 -91.90625 C 103.125 -98.363281 97.96875 -103.457031 91.4375 -107.1875 C 84.914062 -110.914062 77.613281 -112.78125 69.53125 -112.78125 L 42.125 -112.78125 Z M 42.125 -26.09375 "/></g></g></g></g></g><g transform="matrix(1, 0, 0, 1, 76, 111)"><g clip-path="url(#e82ca130ce)"><g fill="#000000" fill-opacity="1"><g transform="translate(0.62207, 141.683356)"><g><path d="M 99.25 1.28125 L 11.941406 1.28125 L 11.941406 -140.007812 L 88.242188 -140.007812 L 88.242188 -111.378906 L 42.082031 -111.378906 L 42.082031 -112.65625 L 43.363281 -112.65625 L 43.363281 -86.773438 L 42.082031 -86.773438 L 42.082031 -88.054688 L 95.503906 -88.054688 L 95.503906 -59.609375 L 42.082031 -59.609375 L 42.082031 -60.890625 L 43.363281 -60.890625 L 43.363281 -26.070312 L 42.082031 -26.070312 L 42.082031 -27.351562 L 100.53125 -27.351562 L 100.53125 1.28125 Z M 99.25 -1.28125 L 99.25 0 L 97.96875 0 L 97.96875 -26.070312 L 99.25 -26.070312 L 99.25 -24.789062 L 40.804688 -24.789062 L 40.804688 -62.171875 L 94.222656 -62.171875 L 94.222656 -60.890625 L 92.941406 -60.890625 L 92.941406 -86.773438 L 94.222656 -86.773438 L 94.222656 -85.496094 L 40.804688 -85.496094 L 40.804688 -113.9375 L 86.960938 -113.9375 L 86.960938 -112.65625 L 85.679688 -112.65625 L 85.679688 -138.726562 L 86.960938 -138.726562 L 86.960938 -137.449219 L 13.222656 -137.449219 L 13.222656 -138.726562 L 14.5 -138.726562 L 14.5 0 L 13.222656 0 L 13.222656 -1.28125 Z M 99.25 -1.28125 "/></g></g></g><g fill="#000000" fill-opacity="1"><g transform="translate(0.62207, 141.683356)"><g><path d="M 99.25 0 L 13.21875 0 L 13.21875 -138.734375 L 86.96875 -138.734375 L 86.96875 -112.65625 L 42.078125 -112.65625 L 42.078125 -86.78125 L 94.234375 -86.78125 L 94.234375 -60.890625 L 42.078125 -60.890625 L 42.078125 -26.078125 L 99.25 -26.078125 Z M 99.25 0 "/></g></g></g></g></g></svg>